# xmcd
#
# Track frame offsets:
#	150
#	20083
#	33299
#	48908
#	64713
#	80380
#	97790
#	115273
#	132793
#	154522
#	172601
#	188620
#	204522
#	218937
#	233786
#	257278
#
# Disc length: 3613 seconds
#
# Revision: 1
# Processed by: cddbd v1.5.2PL0 Copyright (c) Steve Scherf et al.
# Submitted via: audiograbber 1.83.01
#
DISCID=bd0e1b10
DTITLE=Dale Duncan - What Country's All About
DYEAR=2015
DGENRE=Country
TTITLE0=Station Mindaroo
TTITLE1=Western Plains Drover
TTITLE2=I Miss The Country
TTITLE3=The Clarence River
TTITLE4=We Were Millionaires
TTITLE5=Heartbreak Corner Home
TTITLE6=What Country's All About
TTITLE7=The Curlew Cries
TTITLE8=The Last Charge
TTITLE9=It's Great To Be An Aussie
TTITLE10=Waltzing Again
TTITLE11=Yesterday is History, Mate
TTITLE12=Diamantina Coming Down
TTITLE13=Just Like Your Dad
TTITLE14=Woman On The Land
TTITLE15=Little Old Church On The Hill
EXTD=
EXTT0=
EXTT1=
EXTT2=
EXTT3=
EXTT4=
EXTT5=
EXTT6=
EXTT7=
EXTT8=
EXTT9=
EXTT10=
EXTT11=
EXTT12=
EXTT13=
EXTT14=
EXTT15=
PLAYORDER=
